<svg width="400" height="48" viewBox="0 0 400 48" fill="none" xmlns="http://www.w3.org/2000/svg">
<rect width="400" height="48" rx="14" fill="#F5F7FA"/>
<path d="M139.132 29C138.882 29 138.687 28.93 138.547 28.79C138.407 28.65 138.337 28.455 138.337 28.205V19.16C138.337 18.9 138.402 18.705 138.532 18.575C138.672 18.435 138.867 18.365 139.117 18.365C139.367 18.365 139.557 18.435 139.687 18.575C139.827 18.705 139.897 18.9 139.897 19.16V27.665H144.547C144.767 27.665 144.937 27.725 145.057 27.845C145.177 27.955 145.237 28.115 145.237 28.325C145.237 28.535 145.177 28.7 145.057 28.82C144.937 28.94 144.767 29 144.547 29H139.132ZM149.555 29.135C148.815 29.135 148.175 28.98 147.635 28.67C147.105 28.36 146.69 27.92 146.39 27.35C146.09 26.78 145.94 26.11 145.94 25.34C145.94 24.75 146.025 24.225 146.195 23.765C146.365 23.305 146.605 22.91 146.915 22.58C147.235 22.24 147.615 21.985 148.055 21.815C148.505 21.635 149.005 21.545 149.555 21.545C150.285 21.545 150.915 21.7 151.445 22.01C151.985 22.32 152.405 22.76 152.705 23.33C153.005 23.89 153.155 24.56 153.155 25.34C153.155 25.92 153.07 26.445 152.9 26.915C152.73 27.385 152.485 27.785 152.165 28.115C151.855 28.445 151.475 28.7 151.025 28.88C150.585 29.05 150.095 29.135 149.555 29.135ZM149.555 27.965C149.965 27.965 150.325 27.865 150.635 27.665C150.945 27.465 151.185 27.17 151.355 26.78C151.535 26.39 151.625 25.91 151.625 25.34C151.625 24.48 151.435 23.83 151.055 23.39C150.675 22.95 150.175 22.73 149.555 22.73C149.135 22.73 148.77 22.83 148.46 23.03C148.15 23.22 147.905 23.51 147.725 23.9C147.555 24.29 147.47 24.77 147.47 25.34C147.47 26.19 147.66 26.84 148.04 27.29C148.42 27.74 148.925 27.965 149.555 27.965ZM158.172 31.835C157.632 31.835 157.107 31.78 156.597 31.67C156.097 31.56 155.642 31.38 155.232 31.13C155.082 31.05 154.982 30.95 154.932 30.83C154.882 30.72 154.867 30.605 154.887 30.485C154.917 30.365 154.972 30.26 155.052 30.17C155.132 30.08 155.227 30.02 155.337 29.99C155.457 29.96 155.582 29.98 155.712 30.05C156.152 30.29 156.567 30.45 156.957 30.53C157.357 30.62 157.727 30.665 158.067 30.665C158.767 30.665 159.292 30.485 159.642 30.125C159.992 29.775 160.167 29.255 160.167 28.565V27.035H160.302C160.152 27.585 159.837 28.02 159.357 28.34C158.877 28.66 158.322 28.82 157.692 28.82C157.032 28.82 156.457 28.67 155.967 28.37C155.477 28.06 155.097 27.635 154.827 27.095C154.557 26.545 154.422 25.905 154.422 25.175C154.422 24.625 154.497 24.13 154.647 23.69C154.807 23.25 155.027 22.87 155.307 22.55C155.597 22.23 155.942 21.985 156.342 21.815C156.752 21.635 157.202 21.545 157.692 21.545C158.332 21.545 158.887 21.705 159.357 22.025C159.837 22.345 160.147 22.78 160.287 23.33L160.137 23.585V22.34C160.137 22.09 160.202 21.9 160.332 21.77C160.472 21.64 160.657 21.575 160.887 21.575C161.127 21.575 161.312 21.64 161.442 21.77C161.572 21.9 161.637 22.09 161.637 22.34V28.385C161.637 29.525 161.342 30.385 160.752 30.965C160.162 31.545 159.302 31.835 158.172 31.835ZM158.052 27.635C158.492 27.635 158.867 27.535 159.177 27.335C159.487 27.135 159.727 26.85 159.897 26.48C160.067 26.11 160.152 25.675 160.152 25.175C160.152 24.425 159.962 23.83 159.582 23.39C159.212 22.95 158.702 22.73 158.052 22.73C157.622 22.73 157.252 22.83 156.942 23.03C156.632 23.23 156.387 23.515 156.207 23.885C156.037 24.245 155.952 24.675 155.952 25.175C155.952 25.935 156.142 26.535 156.522 26.975C156.902 27.415 157.412 27.635 158.052 27.635ZM164.513 29.09C164.273 29.09 164.088 29.02 163.958 28.88C163.828 28.73 163.763 28.525 163.763 28.265V22.415C163.763 22.155 163.828 21.955 163.958 21.815C164.088 21.675 164.273 21.605 164.513 21.605C164.753 21.605 164.938 21.675 165.068 21.815C165.208 21.955 165.278 22.155 165.278 22.415V28.265C165.278 28.525 165.213 28.73 165.083 28.88C164.953 29.02 164.763 29.09 164.513 29.09ZM164.513 20.045C164.213 20.045 163.978 19.97 163.808 19.82C163.648 19.67 163.568 19.46 163.568 19.19C163.568 18.91 163.648 18.7 163.808 18.56C163.978 18.41 164.213 18.335 164.513 18.335C164.813 18.335 165.043 18.41 165.203 18.56C165.373 18.7 165.458 18.91 165.458 19.19C165.458 19.46 165.373 19.67 165.203 19.82C165.043 19.97 164.813 20.045 164.513 20.045ZM168.16 29.105C167.92 29.105 167.735 29.04 167.605 28.91C167.475 28.77 167.41 28.58 167.41 28.34V22.34C167.41 22.09 167.475 21.9 167.605 21.77C167.735 21.64 167.915 21.575 168.145 21.575C168.385 21.575 168.565 21.64 168.685 21.77C168.815 21.9 168.88 22.09 168.88 22.34V23.51L168.715 23.24C168.935 22.68 169.28 22.26 169.75 21.98C170.22 21.69 170.76 21.545 171.37 21.545C171.95 21.545 172.43 21.655 172.81 21.875C173.2 22.085 173.49 22.41 173.68 22.85C173.87 23.28 173.965 23.825 173.965 24.485V28.34C173.965 28.58 173.9 28.77 173.77 28.91C173.64 29.04 173.455 29.105 173.215 29.105C172.965 29.105 172.775 29.04 172.645 28.91C172.515 28.77 172.45 28.58 172.45 28.34V24.575C172.45 23.945 172.325 23.485 172.075 23.195C171.835 22.905 171.455 22.76 170.935 22.76C170.325 22.76 169.835 22.95 169.465 23.33C169.105 23.71 168.925 24.22 168.925 24.86V28.34C168.925 28.85 168.67 29.105 168.16 29.105ZM182.678 29.105C182.468 29.105 182.283 29.055 182.123 28.955C181.973 28.845 181.853 28.675 181.763 28.445L179.558 22.61C179.478 22.41 179.453 22.235 179.483 22.085C179.513 21.925 179.588 21.8 179.708 21.71C179.838 21.62 180.003 21.575 180.203 21.575C180.383 21.575 180.528 21.62 180.638 21.71C180.758 21.79 180.858 21.95 180.938 22.19L182.903 27.725H182.543L184.583 22.13C184.653 21.94 184.748 21.8 184.868 21.71C184.988 21.62 185.143 21.575 185.333 21.575C185.523 21.575 185.678 21.62 185.798 21.71C185.928 21.8 186.023 21.94 186.083 22.13L188.078 27.725H187.748L189.743 22.16C189.823 21.93 189.923 21.775 190.043 21.695C190.173 21.615 190.318 21.575 190.478 21.575C190.678 21.575 190.828 21.625 190.928 21.725C191.038 21.825 191.098 21.955 191.108 22.115C191.128 22.265 191.103 22.43 191.033 22.61L188.828 28.445C188.738 28.665 188.613 28.83 188.453 28.94C188.303 29.05 188.128 29.105 187.928 29.105C187.718 29.105 187.533 29.05 187.373 28.94C187.223 28.83 187.103 28.665 187.013 28.445L184.913 22.76H185.663L183.578 28.445C183.498 28.665 183.378 28.83 183.218 28.94C183.068 29.05 182.888 29.105 182.678 29.105ZM193.443 29.09C193.203 29.09 193.018 29.02 192.888 28.88C192.758 28.73 192.693 28.525 192.693 28.265V22.415C192.693 22.155 192.758 21.955 192.888 21.815C193.018 21.675 193.203 21.605 193.443 21.605C193.683 21.605 193.868 21.675 193.998 21.815C194.138 21.955 194.208 22.155 194.208 22.415V28.265C194.208 28.525 194.143 28.73 194.013 28.88C193.883 29.02 193.693 29.09 193.443 29.09ZM193.443 20.045C193.143 20.045 192.908 19.97 192.738 19.82C192.578 19.67 192.498 19.46 192.498 19.19C192.498 18.91 192.578 18.7 192.738 18.56C192.908 18.41 193.143 18.335 193.443 18.335C193.743 18.335 193.973 18.41 194.133 18.56C194.303 18.7 194.388 18.91 194.388 19.19C194.388 19.46 194.303 19.67 194.133 19.82C193.973 19.97 193.743 20.045 193.443 20.045ZM199.461 29.135C198.861 29.135 198.356 29.03 197.946 28.82C197.536 28.61 197.231 28.3 197.031 27.89C196.831 27.48 196.731 26.98 196.731 26.39V22.85H195.831C195.631 22.85 195.476 22.8 195.366 22.7C195.256 22.59 195.201 22.445 195.201 22.265C195.201 22.075 195.256 21.93 195.366 21.83C195.476 21.73 195.631 21.68 195.831 21.68H196.731V20.135C196.731 19.885 196.796 19.695 196.926 19.565C197.066 19.435 197.256 19.37 197.496 19.37C197.736 19.37 197.921 19.435 198.051 19.565C198.181 19.695 198.246 19.885 198.246 20.135V21.68H200.001C200.201 21.68 200.356 21.73 200.466 21.83C200.576 21.93 200.631 22.075 200.631 22.265C200.631 22.445 200.576 22.59 200.466 22.7C200.356 22.8 200.201 22.85 200.001 22.85H198.246V26.27C198.246 26.8 198.356 27.2 198.576 27.47C198.806 27.74 199.176 27.875 199.686 27.875C199.866 27.875 200.021 27.86 200.151 27.83C200.291 27.79 200.406 27.765 200.496 27.755C200.606 27.755 200.696 27.795 200.766 27.875C200.836 27.945 200.871 28.085 200.871 28.295C200.871 28.445 200.841 28.585 200.781 28.715C200.731 28.845 200.636 28.93 200.496 28.97C200.376 29.01 200.211 29.045 200.001 29.075C199.801 29.115 199.621 29.135 199.461 29.135ZM202.701 29.105C202.461 29.105 202.276 29.04 202.146 28.91C202.016 28.77 201.951 28.58 201.951 28.34V19.085C201.951 18.835 202.016 18.645 202.146 18.515C202.276 18.385 202.461 18.32 202.701 18.32C202.941 18.32 203.126 18.385 203.256 18.515C203.396 18.645 203.466 18.835 203.466 19.085V23.24H203.256C203.476 22.68 203.821 22.26 204.291 21.98C204.761 21.69 205.301 21.545 205.911 21.545C206.491 21.545 206.971 21.655 207.351 21.875C207.741 22.085 208.031 22.41 208.221 22.85C208.411 23.28 208.506 23.825 208.506 24.485V28.34C208.506 28.58 208.441 28.77 208.311 28.91C208.181 29.04 207.996 29.105 207.756 29.105C207.506 29.105 207.316 29.04 207.186 28.91C207.056 28.77 206.991 28.58 206.991 28.34V24.575C206.991 23.945 206.866 23.485 206.616 23.195C206.376 22.905 205.996 22.76 205.476 22.76C204.866 22.76 204.376 22.95 204.006 23.33C203.646 23.71 203.466 24.22 203.466 24.86V28.34C203.466 28.85 203.211 29.105 202.701 29.105ZM219.664 29.135C218.514 29.135 217.544 28.92 216.754 28.49C215.964 28.05 215.364 27.425 214.954 26.615C214.554 25.805 214.354 24.84 214.354 23.72C214.354 22.88 214.469 22.13 214.699 21.47C214.939 20.8 215.279 20.23 215.719 19.76C216.169 19.28 216.714 18.915 217.354 18.665C218.004 18.415 218.739 18.29 219.559 18.29C220.159 18.29 220.749 18.37 221.329 18.53C221.909 18.68 222.439 18.93 222.919 19.28C223.059 19.38 223.149 19.495 223.189 19.625C223.229 19.755 223.229 19.89 223.189 20.03C223.159 20.16 223.094 20.275 222.994 20.375C222.904 20.475 222.789 20.535 222.649 20.555C222.519 20.575 222.374 20.535 222.214 20.435C221.824 20.165 221.414 19.97 220.984 19.85C220.554 19.72 220.079 19.655 219.559 19.655C218.779 19.655 218.119 19.815 217.579 20.135C217.049 20.455 216.649 20.92 216.379 21.53C216.109 22.13 215.974 22.86 215.974 23.72C215.974 25.05 216.289 26.06 216.919 26.75C217.549 27.44 218.484 27.785 219.724 27.785C220.174 27.785 220.614 27.745 221.044 27.665C221.484 27.575 221.904 27.45 222.304 27.29L221.989 28.07V24.575H220.054C219.854 24.575 219.694 24.525 219.574 24.425C219.464 24.315 219.409 24.165 219.409 23.975C219.409 23.785 219.464 23.645 219.574 23.555C219.694 23.455 219.854 23.405 220.054 23.405H222.649C222.859 23.405 223.019 23.46 223.129 23.57C223.239 23.68 223.294 23.84 223.294 24.05V27.83C223.294 28.01 223.259 28.165 223.189 28.295C223.129 28.415 223.024 28.505 222.874 28.565C222.444 28.735 221.939 28.875 221.359 28.985C220.779 29.085 220.214 29.135 219.664 29.135ZM228.701 29.135C227.961 29.135 227.321 28.98 226.781 28.67C226.251 28.36 225.836 27.92 225.536 27.35C225.236 26.78 225.086 26.11 225.086 25.34C225.086 24.75 225.171 24.225 225.341 23.765C225.511 23.305 225.751 22.91 226.061 22.58C226.381 22.24 226.761 21.985 227.201 21.815C227.651 21.635 228.151 21.545 228.701 21.545C229.431 21.545 230.061 21.7 230.591 22.01C231.131 22.32 231.551 22.76 231.851 23.33C232.151 23.89 232.301 24.56 232.301 25.34C232.301 25.92 232.216 26.445 232.046 26.915C231.876 27.385 231.631 27.785 231.311 28.115C231.001 28.445 230.621 28.7 230.171 28.88C229.731 29.05 229.241 29.135 228.701 29.135ZM228.701 27.965C229.111 27.965 229.471 27.865 229.781 27.665C230.091 27.465 230.331 27.17 230.501 26.78C230.681 26.39 230.771 25.91 230.771 25.34C230.771 24.48 230.581 23.83 230.201 23.39C229.821 22.95 229.321 22.73 228.701 22.73C228.281 22.73 227.916 22.83 227.606 23.03C227.296 23.22 227.051 23.51 226.871 23.9C226.701 24.29 226.616 24.77 226.616 25.34C226.616 26.19 226.806 26.84 227.186 27.29C227.566 27.74 228.071 27.965 228.701 27.965ZM237.182 29.135C236.442 29.135 235.802 28.98 235.262 28.67C234.732 28.36 234.317 27.92 234.017 27.35C233.717 26.78 233.567 26.11 233.567 25.34C233.567 24.75 233.652 24.225 233.822 23.765C233.992 23.305 234.232 22.91 234.542 22.58C234.862 22.24 235.242 21.985 235.682 21.815C236.132 21.635 236.632 21.545 237.182 21.545C237.912 21.545 238.542 21.7 239.072 22.01C239.612 22.32 240.032 22.76 240.332 23.33C240.632 23.89 240.782 24.56 240.782 25.34C240.782 25.92 240.697 26.445 240.527 26.915C240.357 27.385 240.112 27.785 239.792 28.115C239.482 28.445 239.102 28.7 238.652 28.88C238.212 29.05 237.722 29.135 237.182 29.135ZM237.182 27.965C237.592 27.965 237.952 27.865 238.262 27.665C238.572 27.465 238.812 27.17 238.982 26.78C239.162 26.39 239.252 25.91 239.252 25.34C239.252 24.48 239.062 23.83 238.682 23.39C238.302 22.95 237.802 22.73 237.182 22.73C236.762 22.73 236.397 22.83 236.087 23.03C235.777 23.22 235.532 23.51 235.352 23.9C235.182 24.29 235.097 24.77 235.097 25.34C235.097 26.19 235.287 26.84 235.667 27.29C236.047 27.74 236.552 27.965 237.182 27.965ZM245.798 31.835C245.258 31.835 244.733 31.78 244.223 31.67C243.723 31.56 243.268 31.38 242.858 31.13C242.708 31.05 242.608 30.95 242.558 30.83C242.508 30.72 242.493 30.605 242.513 30.485C242.543 30.365 242.598 30.26 242.678 30.17C242.758 30.08 242.853 30.02 242.963 29.99C243.083 29.96 243.208 29.98 243.338 30.05C243.778 30.29 244.193 30.45 244.583 30.53C244.983 30.62 245.353 30.665 245.693 30.665C246.393 30.665 246.918 30.485 247.268 30.125C247.618 29.775 247.793 29.255 247.793 28.565V27.035H247.928C247.778 27.585 247.463 28.02 246.983 28.34C246.503 28.66 245.948 28.82 245.318 28.82C244.658 28.82 244.083 28.67 243.593 28.37C243.103 28.06 242.723 27.635 242.453 27.095C242.183 26.545 242.048 25.905 242.048 25.175C242.048 24.625 242.123 24.13 242.273 23.69C242.433 23.25 242.653 22.87 242.933 22.55C243.223 22.23 243.568 21.985 243.968 21.815C244.378 21.635 244.828 21.545 245.318 21.545C245.958 21.545 246.513 21.705 246.983 22.025C247.463 22.345 247.773 22.78 247.913 23.33L247.763 23.585V22.34C247.763 22.09 247.828 21.9 247.958 21.77C248.098 21.64 248.283 21.575 248.513 21.575C248.753 21.575 248.938 21.64 249.068 21.77C249.198 21.9 249.263 22.09 249.263 22.34V28.385C249.263 29.525 248.968 30.385 248.378 30.965C247.788 31.545 246.928 31.835 245.798 31.835ZM245.678 27.635C246.118 27.635 246.493 27.535 246.803 27.335C247.113 27.135 247.353 26.85 247.523 26.48C247.693 26.11 247.778 25.675 247.778 25.175C247.778 24.425 247.588 23.83 247.208 23.39C246.838 22.95 246.328 22.73 245.678 22.73C245.248 22.73 244.878 22.83 244.568 23.03C244.258 23.23 244.013 23.515 243.833 23.885C243.663 24.245 243.578 24.675 243.578 25.175C243.578 25.935 243.768 26.535 244.148 26.975C244.528 27.415 245.038 27.635 245.678 27.635ZM253.745 29.135C252.965 29.135 252.375 28.91 251.975 28.46C251.585 28 251.39 27.34 251.39 26.48V19.085C251.39 18.835 251.455 18.645 251.585 18.515C251.715 18.385 251.9 18.32 252.14 18.32C252.38 18.32 252.565 18.385 252.695 18.515C252.835 18.645 252.905 18.835 252.905 19.085V26.39C252.905 26.89 253.005 27.265 253.205 27.515C253.415 27.755 253.715 27.875 254.105 27.875C254.195 27.875 254.275 27.875 254.345 27.875C254.415 27.865 254.485 27.855 254.555 27.845C254.675 27.835 254.76 27.87 254.81 27.95C254.86 28.02 254.885 28.17 254.885 28.4C254.885 28.61 254.84 28.775 254.75 28.895C254.66 29.005 254.515 29.075 254.315 29.105C254.225 29.115 254.13 29.12 254.03 29.12C253.93 29.13 253.835 29.135 253.745 29.135ZM259.336 29.135C258.536 29.135 257.846 28.985 257.266 28.685C256.696 28.375 256.251 27.94 255.931 27.38C255.621 26.81 255.466 26.135 255.466 25.355C255.466 24.595 255.621 23.93 255.931 23.36C256.241 22.79 256.666 22.345 257.206 22.025C257.746 21.705 258.361 21.545 259.051 21.545C259.561 21.545 260.016 21.63 260.416 21.8C260.816 21.96 261.156 22.2 261.436 22.52C261.726 22.83 261.941 23.21 262.081 23.66C262.231 24.11 262.306 24.615 262.306 25.175C262.306 25.345 262.256 25.475 262.156 25.565C262.056 25.645 261.906 25.685 261.706 25.685H256.666V24.755H261.286L261.031 24.965C261.031 24.465 260.956 24.04 260.806 23.69C260.666 23.34 260.451 23.075 260.161 22.895C259.881 22.705 259.531 22.61 259.111 22.61C258.641 22.61 258.241 22.72 257.911 22.94C257.591 23.16 257.346 23.465 257.176 23.855C257.006 24.245 256.921 24.7 256.921 25.22V25.31C256.921 26.19 257.126 26.855 257.536 27.305C257.956 27.745 258.561 27.965 259.351 27.965C259.651 27.965 259.966 27.925 260.296 27.845C260.636 27.765 260.956 27.63 261.256 27.44C261.426 27.34 261.576 27.295 261.706 27.305C261.846 27.315 261.956 27.36 262.036 27.44C262.126 27.52 262.181 27.62 262.201 27.74C262.221 27.86 262.201 27.985 262.141 28.115C262.081 28.235 261.976 28.345 261.826 28.445C261.486 28.675 261.091 28.85 260.641 28.97C260.191 29.08 259.756 29.135 259.336 29.135Z" fill="#1A1926"/>
<g clip-path="url(#clip0_7623_4979)">
<path d="M30.9926 24.1497C30.9926 23.4942 30.9416 23.0159 30.8311 22.5198H23.6499V25.4785H27.8651C27.7802 26.2137 27.3212 27.321 26.3014 28.0651L26.2871 28.1641L28.5577 29.9976L28.715 30.014C30.1597 28.6232 30.9926 26.5769 30.9926 24.1497Z" fill="#4285F4"/>
<path d="M23.6495 31.9451C25.7146 31.9451 27.4482 31.2364 28.7146 30.014L26.301 28.0651C25.6551 28.5346 24.7882 28.8624 23.6495 28.8624C21.6268 28.8624 19.9102 27.4716 19.2982 25.5494L19.2085 25.5573L16.8475 27.4619L16.8167 27.5513C18.0744 30.1557 20.658 31.9451 23.6495 31.9451Z" fill="#34A853"/>
<path d="M19.2979 25.5493C19.1364 25.0532 19.0429 24.5217 19.0429 23.9725C19.0429 23.4233 19.1364 22.8918 19.2894 22.3957L19.2851 22.2901L16.8945 20.3549L16.8163 20.3937C16.2979 21.4744 16.0005 22.688 16.0005 23.9725C16.0005 25.257 16.2979 26.4705 16.8163 27.5513L19.2979 25.5493Z" fill="#FBBC05"/>
<path d="M23.6494 19.0827C25.0857 19.0827 26.0545 19.7294 26.6069 20.2698L28.7655 18.0729C27.4398 16.7884 25.7145 16 23.6494 16C20.658 16 18.0744 17.7894 16.8167 20.3937L19.2897 22.3958C19.9101 20.4735 21.6268 19.0827 23.6494 19.0827Z" fill="#EB4335"/>
</g>
<defs>
<clipPath id="clip0_7623_4979">
<rect width="15" height="16" fill="white" transform="translate(16 16)"/>
</clipPath>
</defs>
</svg>
