<svg width="400" height="16" viewBox="0 0 400 16" fill="none" xmlns="http://www.w3.org/2000/svg">
<rect x="0.25" y="8.25" width="174.5" height="0.5" stroke="#EBEEF2" stroke-width="0.5"/>
<rect x="225.25" y="8.25" width="174.5" height="0.5" stroke="#EBEEF2" stroke-width="0.5"/>
<path opacity="0.9" d="M195.983 12.108C195.199 12.108 194.515 11.932 193.931 11.58C193.355 11.22 192.907 10.716 192.587 10.068C192.275 9.42 192.119 8.652 192.119 7.764C192.119 7.092 192.207 6.492 192.383 5.964C192.567 5.428 192.827 4.976 193.163 4.608C193.499 4.232 193.903 3.944 194.375 3.744C194.855 3.536 195.391 3.432 195.983 3.432C196.783 3.432 197.471 3.608 198.047 3.96C198.631 4.312 199.079 4.812 199.391 5.46C199.711 6.1 199.871 6.864 199.871 7.752C199.871 8.424 199.779 9.028 199.595 9.564C199.411 10.1 199.151 10.556 198.815 10.932C198.479 11.308 198.071 11.6 197.591 11.808C197.119 12.008 196.583 12.108 195.983 12.108ZM195.983 11.232C196.591 11.232 197.103 11.096 197.519 10.824C197.943 10.552 198.267 10.156 198.491 9.636C198.715 9.116 198.827 8.492 198.827 7.764C198.827 6.668 198.579 5.82 198.083 5.22C197.595 4.612 196.895 4.308 195.983 4.308C195.391 4.308 194.883 4.444 194.459 4.716C194.043 4.988 193.723 5.384 193.499 5.904C193.275 6.416 193.163 7.036 193.163 7.764C193.163 8.852 193.411 9.704 193.907 10.32C194.403 10.928 195.095 11.232 195.983 11.232ZM202.122 12.084C201.962 12.084 201.838 12.04 201.75 11.952C201.67 11.856 201.63 11.728 201.63 11.568V4.044C201.63 3.876 201.674 3.752 201.762 3.672C201.85 3.584 201.974 3.54 202.134 3.54H204.978C205.882 3.54 206.578 3.752 207.066 4.176C207.554 4.6 207.798 5.204 207.798 5.988C207.798 6.484 207.686 6.916 207.462 7.284C207.246 7.644 206.926 7.92 206.502 8.112C206.078 8.296 205.57 8.388 204.978 8.388L205.098 8.232H205.338C205.65 8.232 205.922 8.312 206.154 8.472C206.386 8.632 206.598 8.888 206.79 9.24L207.942 11.388C208.006 11.5 208.034 11.612 208.026 11.724C208.026 11.828 207.99 11.916 207.918 11.988C207.846 12.052 207.742 12.084 207.606 12.084C207.47 12.084 207.358 12.052 207.27 11.988C207.182 11.924 207.106 11.832 207.042 11.712L205.734 9.288C205.55 8.944 205.338 8.716 205.098 8.604C204.858 8.484 204.542 8.424 204.15 8.424H202.614V11.568C202.614 11.728 202.574 11.856 202.494 11.952C202.414 12.04 202.29 12.084 202.122 12.084ZM202.614 7.644H204.834C205.49 7.644 205.986 7.508 206.322 7.236C206.658 6.956 206.826 6.54 206.826 5.988C206.826 5.452 206.658 5.048 206.322 4.776C205.986 4.496 205.49 4.356 204.834 4.356H202.614V7.644Z" fill="#637085"/>
</svg>
