<svg width="30" height="30" viewBox="0 0 30 30" fill="none" xmlns="http://www.w3.org/2000/svg">
<circle cx="15" cy="15" r="15" fill="url(#paint0_radial_7623_4827)"/>
<mask id="mask0_7623_4827" style="mask-type:alpha" maskUnits="userSpaceOnUse" x="0" y="0" width="30" height="30">
<circle cx="15" cy="15" r="15" fill="#C4C4C4"/>
</mask>
<g mask="url(#mask0_7623_4827)">
<path d="M19.0856 21.911L14.9998 25.3517L10.914 21.911C8.79864 20.1297 7.5777 17.5052 7.5777 14.7398V13.6325C7.57765 9.53345 10.9007 6.21045 14.9998 6.21045C19.0989 6.21045 22.4219 9.53345 22.4219 13.6325V14.7398C22.4219 17.5053 21.2009 20.1297 19.0856 21.911Z" fill="url(#paint1_linear_7623_4827)"/>
<path d="M22.6925 24.0751L18.5754 22.8642C18.0767 22.7175 17.7341 22.2598 17.7341 21.7399V19.8823H12.2651V21.7399C12.2651 22.2598 11.9227 22.7175 11.4239 22.8642L7.30675 24.0751C6.30927 24.3685 5.62427 25.2839 5.62427 26.3237V29.2576C5.62427 29.9048 6.14897 30.4295 6.79618 30.4295H23.203C23.8502 30.4295 24.3749 29.9048 24.3749 29.2576V26.3237C24.3749 25.2839 23.6899 24.3685 22.6925 24.0751Z" fill="url(#paint2_linear_7623_4827)"/>
<path d="M22.6925 24.0755L18.5754 22.8646C18.5058 22.8442 18.4401 22.8163 18.3771 22.7844L14.9995 25.3517L11.6223 22.7844C11.5593 22.8163 11.4936 22.8442 11.424 22.8646L7.30675 24.0755C6.30927 24.3689 5.62427 25.2844 5.62427 26.3241V29.2581C5.62427 29.9053 6.14897 30.43 6.79618 30.43H23.203C23.8502 30.43 24.3749 29.9053 24.3749 29.2581V26.3241C24.3749 25.2844 23.6899 24.3689 22.6925 24.0755Z" fill="url(#paint3_linear_7623_4827)"/>
<path d="M12.2653 20.7541C13.086 21.1924 14.0167 21.4449 14.9998 21.4449C15.9829 21.4449 16.9136 21.1924 17.7343 20.7541V19.8823H12.2653V20.7541Z" fill="url(#paint4_linear_7623_4827)"/>
<path d="M20.2735 14.0233H20.0782V9.72632H9.92156V14.0233H9.72627C9.18691 14.0233 8.74969 14.4606 8.74969 14.9999C8.74969 15.5393 9.18691 15.9765 9.72627 15.9765H9.94132C10.1414 18.598 12.3271 20.6642 14.9999 20.6642C17.6727 20.6642 19.8583 18.598 20.0584 15.9765H20.2735C20.8128 15.9765 21.25 15.5392 21.25 14.9999C21.2501 14.4606 20.8128 14.0233 20.2735 14.0233Z" fill="url(#paint5_linear_7623_4827)"/>
<path d="M20.0782 9.72632H9.92157V14.0233H9.78204C9.27118 14.0233 8.80566 14.3909 8.75475 14.8992C8.69621 15.4838 9.15366 15.9765 9.72628 15.9765H9.94133C10.1414 18.5981 12.3271 20.6642 14.9999 20.6642C15.2671 20.6642 15.5277 20.6382 15.7836 20.5984C13.3497 20.2228 11.4841 18.125 11.4841 15.5859V12.7795C11.4841 12.2703 11.961 11.9017 12.4555 12.0235C13.089 12.1796 13.7519 12.3105 14.4327 12.4001C14.4796 12.4063 14.5258 12.4092 14.5713 12.4092C14.921 12.4092 15.2474 12.2351 15.4445 11.9434C15.592 11.725 15.6514 11.4636 15.6173 11.209C16.7989 11.5163 18.5759 12.1891 20.0781 13.5859V9.72632H20.0782Z" fill="url(#paint6_linear_7623_4827)"/>
<path d="M12.656 15.2293C12.44 15.2293 12.2653 15.0544 12.2653 14.8387V14.448C12.2653 14.2323 12.44 14.0574 12.656 14.0574C12.8719 14.0574 13.0466 14.2323 13.0466 14.448V14.8387C13.0466 15.0544 12.8719 15.2293 12.656 15.2293Z" fill="url(#paint7_radial_7623_4827)"/>
<path d="M17.3435 15.2293C17.1275 15.2293 16.9528 15.0544 16.9528 14.8387V14.448C16.9528 14.2323 17.1275 14.0574 17.3435 14.0574C17.5594 14.0574 17.7341 14.2323 17.7341 14.448V14.8387C17.7341 15.0544 17.5594 15.2293 17.3435 15.2293Z" fill="url(#paint8_radial_7623_4827)"/>
<path d="M13.0466 13.6324H12.2653C12.0494 13.6324 11.8746 13.4574 11.8746 13.2417C11.8746 13.026 12.0494 12.8511 12.2653 12.8511H13.0466C13.2625 12.8511 13.4372 13.026 13.4372 13.2417C13.4372 13.4574 13.2625 13.6324 13.0466 13.6324Z" fill="url(#paint9_linear_7623_4827)"/>
<path d="M17.7342 13.6324H16.953C16.737 13.6324 16.5623 13.4574 16.5623 13.2417C16.5623 13.026 16.737 12.8511 16.953 12.8511H17.7342C17.9502 12.8511 18.1249 13.026 18.1249 13.2417C18.1249 13.4574 17.9502 13.6324 17.7342 13.6324Z" fill="url(#paint10_linear_7623_4827)"/>
<path d="M14.9997 17.9296C14.4138 17.9296 13.8729 17.7416 13.5535 17.4265C13.3998 17.275 13.3983 17.0276 13.5497 16.8741C13.7012 16.7206 13.9492 16.7188 14.1021 16.8703C14.2322 16.9987 14.5454 17.1484 14.9998 17.1484C15.4541 17.1484 15.7673 16.9987 15.8974 16.8703C16.0504 16.7188 16.2984 16.7206 16.4498 16.8741C16.6013 17.0276 16.5997 17.275 16.446 17.4265C16.1266 17.7416 15.5857 17.9296 14.9997 17.9296Z" fill="#B67F5F"/>
<path d="M9.14001 14.2072L10.0126 14.1045C10.406 14.0582 10.7026 13.7248 10.7026 13.3285V9.72632H9.14001V14.2072Z" fill="url(#paint11_linear_7623_4827)"/>
<path d="M20.8591 14.2072L19.9866 14.1045C19.5931 14.0582 19.2966 13.7248 19.2966 13.3285V9.72632H20.8591V14.2072Z" fill="url(#paint12_linear_7623_4827)"/>
<path d="M21.4145 9.91107C20.1292 7.70057 17.7411 6.21045 14.9998 6.21045C12.3213 6.21045 9.98131 7.63409 8.67615 9.76115V9.87564C9.93502 10.4473 12.1359 11.3095 14.5347 11.6254C14.7436 11.6529 14.9038 11.4407 14.8252 11.2452L14.5766 10.6271C14.4953 10.4249 14.667 10.2132 14.8818 10.2502C15.9783 10.439 18.7221 11.1046 20.8594 13.2419L21.4145 9.91107Z" fill="url(#paint13_linear_7623_4827)"/>
<path d="M14.9998 6.21045C12.3213 6.21045 9.98131 7.63409 8.67615 9.76114V9.87564C8.97142 10.0097 9.32255 10.1604 9.71194 10.3156C10.8191 8.55702 12.7726 7.38237 14.9998 7.38237C17.9146 7.38237 20.3626 9.39079 21.0506 12.0945L21.4145 9.91107C20.1292 7.70057 17.7411 6.21045 14.9998 6.21045Z" fill="url(#paint14_linear_7623_4827)"/>
<path d="M14.9997 5.81934C10.6916 5.81934 7.18695 9.32423 7.18695 13.6321V14.7394C7.18695 17.6266 8.45385 20.3493 10.6623 22.2096L14.6091 25.5333V30.4296H15.3904V25.5332L19.3372 22.2096V22.2094C21.5456 20.3493 22.8125 17.6266 22.8125 14.7393V13.6321C22.8125 9.32423 19.3079 5.81934 14.9997 5.81934ZM22.0312 14.7393C22.0312 17.3956 20.8658 19.9004 18.8336 21.6117L14.9997 24.8406L11.1658 21.6119C9.13366 19.9004 7.96823 17.3956 7.96823 14.7393V13.6321C7.96823 9.7549 11.1227 6.60061 14.9997 6.60061C18.8768 6.60061 22.0312 9.7549 22.0312 13.6321V14.7393Z" fill="url(#paint15_linear_7623_4827)"/>
<path d="M14.9998 25.3521C14.5701 25.3521 14.2185 25.7036 14.2185 26.1333V26.9146C14.2185 27.3443 14.5701 27.6959 14.9998 27.6959C15.4295 27.6959 15.7811 27.3443 15.7811 26.9146V26.1333C15.7811 25.7036 15.4295 25.3521 14.9998 25.3521Z" fill="url(#paint16_linear_7623_4827)"/>
<path d="M8.87496 26.9374L6.31704 24.6636C6.13001 24.8497 5.97812 25.0672 5.86285 25.3051L8.35618 27.5214C8.60603 27.7436 8.74951 28.0628 8.74951 28.3973V30.4301H9.53079V28.3973C9.53074 27.8398 9.29194 27.3076 8.87496 26.9374Z" fill="url(#paint17_linear_7623_4827)"/>
<path d="M21.1243 26.9374L23.6823 24.6636C23.8693 24.8497 24.0212 25.0672 24.1364 25.3051L21.6432 27.5214C21.3933 27.7436 21.2498 28.0628 21.2498 28.3973V30.4301H20.4686V28.3973C20.4686 27.8398 20.7074 27.3076 21.1243 26.9374Z" fill="url(#paint18_linear_7623_4827)"/>
</g>
<defs>
<radialGradient id="paint0_radial_7623_4827" cx="0" cy="0" r="1" gradientUnits="userSpaceOnUse" gradientTransform="translate(4.6875 3.125) rotate(50.4206) scale(30.409)">
<stop offset="0.552731" stop-color="#E3D7D2"/>
<stop offset="1" stop-color="#D3AE9E"/>
</radialGradient>
<linearGradient id="paint1_linear_7623_4827" x1="14.9998" y1="6.21045" x2="14.9998" y2="25.3517" gradientUnits="userSpaceOnUse">
<stop stop-color="#78A8EB"/>
<stop offset="1" stop-color="#99BBEB"/>
</linearGradient>
<linearGradient id="paint2_linear_7623_4827" x1="12.4999" y1="21.562" x2="15.3417" y2="25.245" gradientUnits="userSpaceOnUse">
<stop stop-color="#E6AC82"/>
<stop offset="1" stop-color="#F2CBAF"/>
</linearGradient>
<linearGradient id="paint3_linear_7623_4827" x1="14.9996" y1="22.7844" x2="14.9996" y2="30.43" gradientUnits="userSpaceOnUse">
<stop stop-color="#78A8EB"/>
<stop offset="1" stop-color="#99BBEB"/>
</linearGradient>
<linearGradient id="paint4_linear_7623_4827" x1="12.4993" y1="20.6636" x2="14.751" y2="23.6201" gradientUnits="userSpaceOnUse">
<stop stop-color="#E6A470"/>
<stop offset="1" stop-color="#E6A370" stop-opacity="0"/>
</linearGradient>
<linearGradient id="paint5_linear_7623_4827" x1="11.5619" y1="11.8326" x2="19.0144" y2="19.1042" gradientUnits="userSpaceOnUse">
<stop stop-color="#F3B68A"/>
<stop offset="1" stop-color="#FED5B8"/>
</linearGradient>
<linearGradient id="paint6_linear_7623_4827" x1="10.4439" y1="9.88805" x2="14.1084" y2="20.7671" gradientUnits="userSpaceOnUse">
<stop stop-color="#EBA873"/>
<stop offset="1" stop-color="#EBA773" stop-opacity="0"/>
</linearGradient>
<radialGradient id="paint7_radial_7623_4827" cx="0" cy="0" r="1" gradientUnits="userSpaceOnUse" gradientTransform="translate(12.5004 14.4079) rotate(71.565) scale(0.988186 0.658792)">
<stop stop-color="#040404"/>
<stop offset="1" stop-color="#767676"/>
</radialGradient>
<radialGradient id="paint8_radial_7623_4827" cx="0" cy="0" r="1" gradientUnits="userSpaceOnUse" gradientTransform="translate(17.1879 14.4079) rotate(71.565) scale(0.988186 0.658791)">
<stop stop-color="#040404"/>
<stop offset="1" stop-color="#767676"/>
</radialGradient>
<linearGradient id="paint9_linear_7623_4827" x1="12.1875" y1="12.8122" x2="12.6559" y2="13.6324" gradientUnits="userSpaceOnUse">
<stop stop-color="#6E5A64"/>
<stop offset="1" stop-color="#6E5A64" stop-opacity="0.86"/>
</linearGradient>
<linearGradient id="paint10_linear_7623_4827" x1="16.8752" y1="12.8122" x2="17.3436" y2="13.6324" gradientUnits="userSpaceOnUse">
<stop stop-color="#6E5A64"/>
<stop offset="1" stop-color="#6E5A64" stop-opacity="0.86"/>
</linearGradient>
<linearGradient id="paint11_linear_7623_4827" x1="9.68739" y1="10.3126" x2="9.59837" y2="14.357" gradientUnits="userSpaceOnUse">
<stop stop-color="#473A41"/>
<stop offset="1" stop-color="#6E5A64"/>
</linearGradient>
<linearGradient id="paint12_linear_7623_4827" x1="19.8439" y1="10.3126" x2="19.7549" y2="14.357" gradientUnits="userSpaceOnUse">
<stop stop-color="#473A41"/>
<stop offset="1" stop-color="#6E5A64"/>
</linearGradient>
<linearGradient id="paint13_linear_7623_4827" x1="10.9376" y1="8.43747" x2="19.7903" y2="14.0101" gradientUnits="userSpaceOnUse">
<stop stop-color="#473A41"/>
<stop offset="1" stop-color="#6E5A64"/>
</linearGradient>
<linearGradient id="paint14_linear_7623_4827" x1="15.0001" y1="6.87497" x2="17.5001" y2="11.5625" gradientUnits="userSpaceOnUse">
<stop stop-color="#64505A"/>
<stop offset="1" stop-color="#64505A" stop-opacity="0"/>
</linearGradient>
<linearGradient id="paint15_linear_7623_4827" x1="14.9997" y1="5.81934" x2="14.9997" y2="30.4296" gradientUnits="userSpaceOnUse">
<stop stop-color="#A5CDFF"/>
<stop offset="0.600905" stop-color="#BDDAFF"/>
</linearGradient>
<linearGradient id="paint16_linear_7623_4827" x1="14.9998" y1="25.3521" x2="14.9998" y2="27.6959" gradientUnits="userSpaceOnUse">
<stop stop-color="#473A41"/>
<stop offset="1" stop-color="#6E5A64"/>
</linearGradient>
<linearGradient id="paint17_linear_7623_4827" x1="7.69682" y1="24.6636" x2="7.69682" y2="30.4301" gradientUnits="userSpaceOnUse">
<stop offset="0.21875" stop-color="#A5CDFF"/>
<stop offset="1" stop-color="#D9EAFF"/>
</linearGradient>
<linearGradient id="paint18_linear_7623_4827" x1="22.3025" y1="24.6636" x2="22.3025" y2="30.4301" gradientUnits="userSpaceOnUse">
<stop offset="0.21875" stop-color="#A5CDFF"/>
<stop offset="1" stop-color="#D9EAFF"/>
</linearGradient>
</defs>
</svg>
